<svg width="189" height="32" viewBox="0 0 189 32" fill="none" xmlns="http://www.w3.org/2000/svg">
<path fill-rule="evenodd" clip-rule="evenodd" d="M13.0977 23.3376L13.188 23.3302C14.3548 23.2353 15.2739 22.2548 15.2739 21.0621C15.2739 19.8052 14.255 18.7862 12.9981 18.7862H12.9944C9.28721 18.7846 5.82039 16.1634 5.82039 11.9587C5.82039 9.90677 6.69223 8.2005 8.17122 7.07466C9.56937 6.01036 11.3234 5.59797 12.9981 5.59797L20.1174 5.59797L20.1192 5.59795L20.1601 5.59716L20.2009 5.59773C20.2079 5.59783 20.2148 5.59789 20.2217 5.59793C20.2258 5.59795 20.23 5.59796 20.2341 5.59796C21.491 5.59796 22.51 4.57903 22.51 3.32211C22.51 2.0652 21.491 1.04626 20.2341 1.04626C20.2246 1.04626 20.2151 1.04632 20.2056 1.04644L19.2073 1.05844L19.1945 1.04626H12.9981C6.2949 1.04626 1.26868 5.57872 1.26868 11.842C1.26868 18.2646 6.4626 23.3339 12.9904 23.3379M13.0977 23.3376C13.067 23.3378 13.0362 23.3379 13.0055 23.3379H13.0051H12.991" fill="white"/>
<circle cx="26.4047" cy="3.28189" r="2.28189" fill="#1C67F7"/>
<circle cx="2.28176" cy="29.6161" r="2.28189" fill="white"/>
<path fill-rule="evenodd" clip-rule="evenodd" d="M15.5706 9.52228L15.4804 9.52962C14.3136 9.62461 13.3944 10.6051 13.3944 11.7978C13.3944 13.0547 14.4134 14.0736 15.6703 14.0736H15.6739C19.3811 14.0753 22.8479 16.6964 22.8479 20.9012C22.8479 22.9531 21.9761 24.6594 20.4971 25.7852C19.099 26.8495 17.345 27.2619 15.6703 27.2619L8.55094 27.2619L8.54911 27.2619L8.50827 27.2627L8.46742 27.2621C8.46048 27.262 8.45355 27.262 8.44661 27.2619C8.44249 27.2619 8.43836 27.2619 8.43423 27.2619C7.17732 27.2619 6.15838 28.2808 6.15838 29.5377C6.15838 30.7947 7.17732 31.8136 8.43423 31.8136C8.44377 31.8136 8.45328 31.8135 8.46277 31.8134L9.46105 31.8014L9.47382 31.8136H15.6703C22.3734 31.8136 27.3997 27.2811 27.3997 21.0179C27.3997 14.5953 22.2057 9.52593 15.678 9.52195M15.5706 9.52228C15.6013 9.52208 15.6321 9.52197 15.6629 9.52195H15.6633H15.6773" fill="#1C67F7"/>
<path d="M62.4633 31.8323C59.148 31.8323 56.1311 31.0863 53.4125 29.5944C52.8489 29.1966 52.5671 28.6496 52.5671 27.9534C52.5671 27.4229 52.7495 26.9588 53.1142 26.561C53.4788 26.1631 53.943 25.9642 54.5066 25.9642C54.805 25.9642 55.1033 26.0305 55.4017 26.1631C56.4626 26.6273 57.5235 26.9919 58.5844 27.2572C59.6453 27.5224 60.8388 27.655 62.1649 27.655C65.8449 27.655 67.6849 26.4781 67.6849 24.1242C67.6849 23.3617 67.2539 22.7815 66.3919 22.3837C65.5631 21.9858 64.1873 21.5383 62.2644 21.041C60.3084 20.5768 58.6839 20.0961 57.3909 19.5988C56.1311 19.1015 55.037 18.3556 54.1088 17.361C53.2136 16.3333 52.7661 14.9906 52.7661 13.3329C52.7661 11.0122 53.5949 9.12248 55.2525 7.66375C56.9433 6.20502 59.3469 5.47565 62.4633 5.47565C65.0161 5.47565 67.4197 5.89006 69.6741 6.71889C70.1382 6.8515 70.4863 7.10015 70.7184 7.46483C70.9836 7.82952 71.1162 8.21078 71.1162 8.60861C71.1162 9.13906 70.9173 9.6032 70.5195 10.001C70.1548 10.3989 69.6907 10.5978 69.1271 10.5978C68.9613 10.5978 68.7458 10.5646 68.4806 10.4983C66.5577 9.90158 64.668 9.6032 62.8114 9.6032C61.0212 9.6032 59.6121 9.93473 58.5844 10.5978C57.5898 11.2277 57.0925 12.0565 57.0925 13.0843C57.0925 14.0789 57.5567 14.8082 58.4849 15.2724C59.4132 15.7365 60.8554 16.1841 62.8114 16.6151C64.7674 17.1124 66.3588 17.6096 67.5854 18.1069C68.8121 18.5711 69.8564 19.317 70.7184 20.3448C71.6135 21.3725 72.0611 22.7484 72.0611 24.4723C72.0611 26.5941 71.2157 28.3512 69.5249 29.7436C67.8672 31.1361 65.5134 31.8323 62.4633 31.8323Z" fill="white"/>
<path d="M86.7095 31.8323C81.8692 31.8323 79.449 29.6442 79.449 25.268V9.85185H75.9182C75.653 9.85185 75.4209 9.76897 75.222 9.6032C75.0563 9.40428 74.9734 9.17221 74.9734 8.90699C74.9734 8.57546 75.1226 8.29366 75.4209 8.06159L82.1842 1.44757C82.4825 1.14919 82.7643 1 83.0296 1C83.2948 1 83.5103 1.09946 83.676 1.29838C83.875 1.49729 83.9744 1.72936 83.9744 1.99459V5.97295H89.5939C90.1575 5.97295 90.6216 6.15529 90.9863 6.51997C91.351 6.88465 91.5333 7.3488 91.5333 7.9124C91.5333 8.44284 91.351 8.90699 90.9863 9.30482C90.6216 9.66951 90.1575 9.85185 89.5939 9.85185H83.9744V24.8702C83.9744 26.1631 84.2728 26.9919 84.8695 27.3566C85.4995 27.6882 86.2786 27.8539 87.2068 27.8539C87.8699 27.8539 88.533 27.7545 89.196 27.5555C89.3286 27.5224 89.4612 27.4892 89.5939 27.4561C89.7596 27.4229 89.9585 27.4064 90.1906 27.4064C90.6547 27.4064 91.0692 27.5887 91.4338 27.9534C91.7985 28.2849 91.9809 28.6993 91.9809 29.1966C91.9809 29.9591 91.5996 30.5393 90.8371 30.9372C89.5441 31.5339 88.1683 31.8323 86.7095 31.8323Z" fill="white"/>
<path d="M107.795 31.8323C105.242 31.8323 103.004 31.2853 101.081 30.1912C99.1585 29.0972 97.6666 27.5555 96.6057 25.5664C95.578 23.544 95.0641 21.2399 95.0641 18.654C95.0641 16.068 95.578 13.7805 96.6057 11.7913C97.6666 9.76897 99.1585 8.21077 101.081 7.11673C103.004 6.02268 105.242 5.47565 107.795 5.47565C110.314 5.47565 112.536 6.02268 114.459 7.11673C116.381 8.21077 117.873 9.76897 118.934 11.7913C119.995 13.7805 120.526 16.068 120.526 18.654C120.526 21.2399 119.995 23.544 118.934 25.5664C117.873 27.5555 116.381 29.0972 114.459 30.1912C112.536 31.2853 110.314 31.8323 107.795 31.8323ZM107.795 27.7047C109.154 27.7047 110.447 27.3898 111.674 26.7599C112.934 26.13 113.961 25.1354 114.757 23.7761C115.586 22.4168 116 20.6929 116 18.6042C116 16.5488 115.586 14.8414 114.757 13.4821C113.961 12.1228 112.934 11.1448 111.674 10.5481C110.447 9.91815 109.154 9.6032 107.795 9.6032C106.402 9.6032 105.076 9.91815 103.816 10.5481C102.59 11.1448 101.579 12.1228 100.783 13.4821C99.9873 14.8414 99.5895 16.5488 99.5895 18.6042C99.5895 20.6929 99.9873 22.4168 100.783 23.7761C101.579 25.1354 102.59 26.13 103.816 26.7599C105.076 27.3898 106.402 27.7047 107.795 27.7047Z" fill="white"/>
<path d="M129.099 31.5836C128.469 31.5836 127.939 31.3681 127.508 30.9372C127.077 30.5062 126.861 29.9757 126.861 29.3458V8.01186C126.861 7.38195 127.077 6.8515 127.508 6.42051C127.939 5.95637 128.469 5.7243 129.099 5.7243C129.729 5.7243 130.259 5.95637 130.69 6.42051C131.154 6.8515 131.386 7.38195 131.386 8.01186V10.1502C133.707 7.03384 136.31 5.47565 139.194 5.47565H139.443C140.073 5.47565 140.586 5.69115 140.984 6.12214C141.415 6.55312 141.631 7.08357 141.631 7.71348C141.631 8.34339 141.415 8.85726 140.984 9.25509C140.553 9.65293 140.006 9.85185 139.343 9.85185H139.094C137.503 9.85185 136.044 10.2497 134.718 11.0454C133.392 11.8079 132.282 12.8688 131.386 14.228V29.3458C131.386 29.9757 131.154 30.5062 130.69 30.9372C130.259 31.3681 129.729 31.5836 129.099 31.5836Z" fill="white"/>
<path d="M148.136 31.5836C147.506 31.5836 146.976 31.3681 146.545 30.9372C146.114 30.5062 145.898 29.9757 145.898 29.3458V15.956C145.898 15.3261 146.114 14.7957 146.545 14.3647C146.976 13.9005 147.506 13.6685 148.136 13.6685C148.799 13.6685 149.346 13.884 149.777 14.315C150.208 14.7459 150.424 15.293 150.424 15.956V29.3458C150.424 29.9757 150.191 30.5062 149.727 30.9372C149.296 31.3681 148.766 31.5836 148.136 31.5836Z" fill="white"/>
<path d="M170.018 31.8323C167.631 31.8323 165.426 31.3018 163.404 30.2409C161.382 29.18 159.757 27.655 158.531 25.6658C157.337 23.6766 156.74 21.3394 156.74 18.654C156.74 15.9686 157.337 13.6313 158.531 11.6421C159.757 9.65293 161.382 8.12789 163.404 7.067C165.426 6.0061 167.631 5.47565 170.018 5.47565C171.775 5.47565 173.284 5.70772 174.543 6.17186C175.836 6.60285 177.03 7.16646 178.124 7.86267C178.787 8.29366 179.119 8.87383 179.119 9.6032C179.119 10.1005 178.92 10.5646 178.522 10.9956C178.157 11.3935 177.726 11.5924 177.229 11.5924C176.864 11.5924 176.499 11.4929 176.135 11.294C175.041 10.7304 174.096 10.3326 173.3 10.1005C172.538 9.83527 171.576 9.70266 170.416 9.70266C167.565 9.70266 165.327 10.5315 163.702 12.1891C162.078 13.8136 161.266 15.9686 161.266 18.654C161.266 21.3394 162.078 23.5109 163.702 25.1685C165.327 26.793 167.565 27.6053 170.416 27.6053C171.576 27.6053 172.538 27.4892 173.3 27.2572C174.096 26.9919 175.041 26.5775 176.135 26.0139C176.499 25.815 176.864 25.7156 177.229 25.7156C177.726 25.7156 178.157 25.931 178.522 26.362C178.92 26.7599 179.119 27.2074 179.119 27.7047C179.119 28.4341 178.787 29.0143 178.124 29.4453C177.03 30.1415 175.836 30.7217 174.543 31.1858C173.284 31.6168 171.775 31.8323 170.018 31.8323Z" fill="white"/>
<path d="M148.037 10.5391C147.34 10.5391 146.744 10.2905 146.246 9.79318C145.749 9.29588 145.5 8.69913 145.5 8.00291V7.804C145.5 7.10778 145.749 6.51103 146.246 6.01373C146.744 5.51644 147.34 5.26779 148.037 5.26779H148.335C149.031 5.26779 149.628 5.51644 150.125 6.01373C150.622 6.51103 150.871 7.10778 150.871 7.804V8.00291C150.871 8.69913 150.622 9.29588 150.125 9.79318C149.628 10.2905 149.031 10.5391 148.335 10.5391H148.037Z" fill="#1C67F7"/>
</svg>
